<?xml version="1.0" encoding="UTF-8"?><svg id="Livello_1" xmlns="http://www.w3.org/2000/svg" viewBox="0 0 430.25 430.25"><defs><style>.cls-1{fill:#222221;}</style></defs><rect class="cls-1" width="11.63" height="81.4"/><rect class="cls-1" y="93.03" width="11.63" height="23.26"/><rect class="cls-1" y="127.91" width="11.63" height="11.63"/><rect class="cls-1" y="151.17" width="11.63" height="11.63"/><rect class="cls-1" y="174.42" width="11.63" height="81.4"/><rect class="cls-1" y="267.45" width="11.63" height="69.77"/><rect class="cls-1" y="348.85" width="11.63" height="81.4"/><rect class="cls-1" x="11.63" width="11.63" height="11.63"/><rect class="cls-1" x="11.63" y="69.77" width="11.63" height="11.63"/><rect class="cls-1" x="11.63" y="139.54" width="11.63" height="34.89"/><rect class="cls-1" x="11.63" y="186.05" width="11.63" height="11.63"/><rect class="cls-1" x="11.63" y="209.31" width="11.63" height="23.26"/><rect class="cls-1" x="11.63" y="255.82" width="11.63" height="34.88"/><rect class="cls-1" x="11.63" y="348.85" width="11.63" height="11.63"/><rect class="cls-1" x="11.63" y="418.62" width="11.63" height="11.63"/><rect class="cls-1" x="23.26" width="11.63" height="11.63"/><rect class="cls-1" x="23.26" y="23.26" width="11.63" height="34.89"/><rect class="cls-1" x="23.26" y="69.77" width="11.63" height="11.63"/><rect class="cls-1" x="23.26" y="93.03" width="11.63" height="23.26"/><rect class="cls-1" x="23.26" y="139.54" width="11.63" height="11.63"/><rect class="cls-1" x="23.26" y="162.8" width="11.63" height="23.26"/><rect class="cls-1" x="23.26" y="197.68" width="11.63" height="11.63"/><rect class="cls-1" x="23.26" y="244.19" width="11.63" height="34.88"/><rect class="cls-1" x="23.26" y="313.96" width="11.63" height="23.26"/><rect class="cls-1" x="23.26" y="348.85" width="11.63" height="11.63"/><rect class="cls-1" x="23.26" y="372.11" width="11.63" height="34.88"/><rect class="cls-1" x="23.26" y="418.62" width="11.63" height="11.63"/><rect class="cls-1" x="34.89" width="11.63" height="11.63"/><rect class="cls-1" x="34.89" y="23.26" width="11.63" height="34.89"/><rect class="cls-1" x="34.89" y="69.77" width="11.63" height="11.63"/><rect class="cls-1" x="34.89" y="93.03" width="11.63" height="34.89"/><rect class="cls-1" x="34.89" y="139.54" width="11.63" height="34.89"/><rect class="cls-1" x="34.89" y="186.05" width="11.63" height="34.88"/><rect class="cls-1" x="34.89" y="290.71" width="11.63" height="46.51"/><rect class="cls-1" x="34.89" y="348.85" width="11.63" height="11.63"/><rect class="cls-1" x="34.89" y="372.11" width="11.63" height="34.88"/><rect class="cls-1" x="34.89" y="418.62" width="11.63" height="11.63"/><rect class="cls-1" x="46.51" width="11.63" height="11.63"/><rect class="cls-1" x="46.51" y="23.26" width="11.63" height="34.89"/><rect class="cls-1" x="46.51" y="69.77" width="11.63" height="11.63"/><rect class="cls-1" x="46.51" y="93.03" width="11.63" height="11.63"/><rect class="cls-1" x="46.51" y="116.28" width="11.63" height="23.26"/><rect class="cls-1" x="46.51" y="162.8" width="11.63" height="11.63"/><rect class="cls-1" x="46.51" y="186.05" width="11.63" height="11.63"/><rect class="cls-1" x="46.51" y="209.31" width="11.63" height="11.63"/><rect class="cls-1" x="46.51" y="244.19" width="11.63" height="23.26"/><rect class="cls-1" x="46.51" y="290.71" width="11.63" height="11.63"/><rect class="cls-1" x="46.51" y="325.59" width="11.63" height="11.63"/><rect class="cls-1" x="46.51" y="348.85" width="11.63" height="11.63"/><rect class="cls-1" x="46.51" y="372.11" width="11.63" height="34.88"/><rect class="cls-1" x="46.51" y="418.62" width="11.63" height="11.63"/><rect class="cls-1" x="58.14" width="11.63" height="11.63"/><rect class="cls-1" x="58.14" y="69.77" width="11.63" height="11.63"/><rect class="cls-1" x="58.14" y="93.03" width="11.63" height="11.63"/><rect class="cls-1" x="58.14" y="139.54" width="11.63" height="11.63"/><rect class="cls-1" x="58.14" y="162.8" width="11.63" height="11.63"/><rect class="cls-1" x="58.14" y="209.31" width="11.63" height="23.26"/><rect class="cls-1" x="58.14" y="244.19" width="11.63" height="11.63"/><rect class="cls-1" x="58.14" y="267.45" width="11.63" height="34.88"/><rect class="cls-1" x="58.14" y="313.96" width="11.63" height="23.26"/><rect class="cls-1" x="58.14" y="348.85" width="11.63" height="11.63"/><rect class="cls-1" x="58.14" y="418.62" width="11.63" height="11.63"/><rect class="cls-1" x="69.77" width="11.63" height="81.4"/><rect class="cls-1" x="69.77" y="93.03" width="11.63" height="11.63"/><rect class="cls-1" x="69.77" y="116.28" width="11.63" height="11.63"/><rect class="cls-1" x="69.77" y="139.54" width="11.63" height="11.63"/><rect class="cls-1" x="69.77" y="162.8" width="11.63" height="11.63"/><rect class="cls-1" x="69.77" y="186.05" width="11.63" height="11.63"/><rect class="cls-1" x="69.77" y="209.31" width="11.63" height="11.63"/><rect class="cls-1" x="69.77" y="232.57" width="11.63" height="11.63"/><rect class="cls-1" x="69.77" y="255.82" width="11.63" height="11.63"/><rect class="cls-1" x="69.77" y="279.08" width="11.63" height="11.63"/><rect class="cls-1" x="69.77" y="302.34" width="11.63" height="11.63"/><rect class="cls-1" x="69.77" y="325.59" width="11.63" height="11.63"/><rect class="cls-1" x="69.77" y="348.85" width="11.63" height="81.4"/><rect class="cls-1" x="81.4" y="104.65" width="11.63" height="46.51"/><rect class="cls-1" x="81.4" y="174.42" width="11.63" height="23.26"/><rect class="cls-1" x="81.4" y="209.31" width="11.63" height="11.63"/><rect class="cls-1" x="81.4" y="279.08" width="11.63" height="11.63"/><rect class="cls-1" x="81.4" y="302.34" width="11.63" height="11.63"/><rect class="cls-1" x="81.4" y="325.59" width="11.63" height="11.63"/><rect class="cls-1" x="93.03" y="23.26" width="11.63" height="69.77"/><rect class="cls-1" x="93.03" y="104.65" width="11.63" height="23.26"/><rect class="cls-1" x="93.03" y="162.8" width="11.63" height="11.63"/><rect class="cls-1" x="93.03" y="209.31" width="11.63" height="23.26"/><rect class="cls-1" x="93.03" y="255.82" width="11.63" height="34.88"/><rect class="cls-1" x="93.03" y="302.34" width="11.63" height="23.26"/><rect class="cls-1" x="93.03" y="337.22" width="11.63" height="11.63"/><rect class="cls-1" x="93.03" y="360.48" width="11.63" height="46.51"/><rect class="cls-1" x="93.03" y="418.62" width="11.63" height="11.63"/><rect class="cls-1" x="104.66" y="58.14" width="11.63" height="11.63"/><rect class="cls-1" x="104.66" y="81.4" width="11.63" height="11.63"/><rect class="cls-1" x="104.66" y="104.65" width="11.63" height="11.63"/><rect class="cls-1" x="104.66" y="127.91" width="11.63" height="11.63"/><rect class="cls-1" x="104.66" y="174.42" width="11.63" height="23.26"/><rect class="cls-1" x="104.66" y="209.31" width="11.63" height="11.63"/><rect class="cls-1" x="104.66" y="255.82" width="11.63" height="11.63"/><rect class="cls-1" x="104.66" y="313.96" width="11.63" height="11.63"/><rect class="cls-1" x="104.66" y="337.22" width="11.63" height="11.63"/><rect class="cls-1" x="104.66" y="372.11" width="11.63" height="34.88"/><rect class="cls-1" x="104.66" y="418.62" width="11.63" height="11.63"/><rect class="cls-1" x="116.28" y="11.63" width="11.63" height="23.26"/><rect class="cls-1" x="116.28" y="46.51" width="11.63" height="34.89"/><rect class="cls-1" x="116.28" y="93.03" width="11.63" height="23.26"/><rect class="cls-1" x="116.28" y="151.17" width="11.63" height="34.89"/><rect class="cls-1" x="116.28" y="232.57" width="11.63" height="58.14"/><rect class="cls-1" x="116.28" y="313.96" width="11.63" height="11.63"/><rect class="cls-1" x="116.28" y="360.48" width="11.63" height="23.26"/><rect class="cls-1" x="116.28" y="406.99" width="11.63" height="23.26"/><rect class="cls-1" x="127.91" width="11.63" height="23.26"/><rect class="cls-1" x="127.91" y="34.88" width="11.63" height="23.26"/><rect class="cls-1" x="127.91" y="93.03" width="11.63" height="11.63"/><rect class="cls-1" x="127.91" y="139.54" width="11.63" height="23.26"/><rect class="cls-1" x="127.91" y="174.42" width="11.63" height="81.4"/><rect class="cls-1" x="127.91" y="279.08" width="11.63" height="11.63"/><rect class="cls-1" x="127.91" y="302.34" width="11.63" height="11.63"/><rect class="cls-1" x="127.91" y="372.11" width="11.63" height="11.63"/><rect class="cls-1" x="139.54" width="11.63" height="11.63"/><rect class="cls-1" x="139.54" y="34.88" width="11.63" height="11.63"/><rect class="cls-1" x="139.54" y="69.77" width="11.63" height="34.89"/><rect class="cls-1" x="139.54" y="127.91" width="11.63" height="34.89"/><rect class="cls-1" x="139.54" y="186.05" width="11.63" height="46.51"/><rect class="cls-1" x="139.54" y="267.45" width="11.63" height="23.26"/><rect class="cls-1" x="139.54" y="302.34" width="11.63" height="11.63"/><rect class="cls-1" x="139.54" y="325.59" width="11.63" height="34.88"/><rect class="cls-1" x="139.54" y="383.73" width="11.63" height="11.63"/><rect class="cls-1" x="139.54" y="406.99" width="11.63" height="23.26"/><rect class="cls-1" x="151.17" width="11.63" height="11.63"/><rect class="cls-1" x="151.17" y="23.26" width="11.63" height="23.26"/><rect class="cls-1" x="151.17" y="58.14" width="11.63" height="11.63"/><rect class="cls-1" x="151.17" y="81.4" width="11.63" height="34.89"/><rect class="cls-1" x="151.17" y="127.91" width="11.63" height="23.26"/><rect class="cls-1" x="151.17" y="209.31" width="11.63" height="11.63"/><rect class="cls-1" x="151.17" y="232.57" width="11.63" height="23.26"/><rect class="cls-1" x="151.17" y="267.45" width="11.63" height="34.88"/><rect class="cls-1" x="151.17" y="313.96" width="11.63" height="11.63"/><rect class="cls-1" x="151.17" y="337.22" width="11.63" height="34.88"/><rect class="cls-1" x="151.17" y="383.73" width="11.63" height="23.26"/><rect class="cls-1" x="162.8" y="11.63" width="11.63" height="23.26"/><rect class="cls-1" x="162.8" y="58.14" width="11.63" height="34.89"/><rect class="cls-1" x="162.8" y="104.65" width="11.63" height="11.63"/><rect class="cls-1" x="162.8" y="127.91" width="11.63" height="11.63"/><rect class="cls-1" x="162.8" y="186.05" width="11.63" height="11.63"/><rect class="cls-1" x="162.8" y="232.57" width="11.63" height="11.63"/><rect class="cls-1" x="162.8" y="267.45" width="11.63" height="11.63"/><rect class="cls-1" x="162.8" y="302.34" width="11.63" height="11.63"/><rect class="cls-1" x="162.8" y="348.85" width="11.63" height="23.26"/><rect class="cls-1" x="162.8" y="383.73" width="11.63" height="11.63"/><rect class="cls-1" x="174.43" width="11.63" height="11.63"/><rect class="cls-1" x="174.43" y="93.03" width="11.63" height="58.14"/><rect class="cls-1" x="174.43" y="162.8" width="11.63" height="46.51"/><rect class="cls-1" x="174.43" y="255.82" width="11.63" height="81.4"/><rect class="cls-1" x="174.43" y="348.85" width="11.63" height="11.63"/><rect class="cls-1" x="174.43" y="383.73" width="11.63" height="11.63"/><rect class="cls-1" x="186.05" width="11.63" height="46.51"/><rect class="cls-1" x="186.05" y="69.77" width="11.63" height="11.63"/><rect class="cls-1" x="186.05" y="93.03" width="11.63" height="11.63"/><rect class="cls-1" x="186.05" y="116.28" width="11.63" height="11.63"/><rect class="cls-1" x="186.05" y="197.68" width="11.63" height="11.63"/><rect class="cls-1" x="186.05" y="220.94" width="11.63" height="69.77"/><rect class="cls-1" x="186.05" y="302.34" width="11.63" height="11.63"/><rect class="cls-1" x="186.05" y="325.59" width="11.63" height="46.51"/><rect class="cls-1" x="186.05" y="383.73" width="11.63" height="11.63"/><rect class="cls-1" x="186.05" y="406.99" width="11.63" height="11.63"/><rect class="cls-1" x="197.68" y="11.63" width="11.63" height="11.63"/><rect class="cls-1" x="197.68" y="34.88" width="11.63" height="34.89"/><rect class="cls-1" x="197.68" y="81.4" width="11.63" height="11.63"/><rect class="cls-1" x="197.68" y="116.28" width="11.63" height="11.63"/><rect class="cls-1" x="197.68" y="139.54" width="11.63" height="11.63"/><rect class="cls-1" x="197.68" y="197.68" width="11.63" height="11.63"/><rect class="cls-1" x="197.68" y="232.57" width="11.63" height="46.51"/><rect class="cls-1" x="197.68" y="302.34" width="11.63" height="11.63"/><rect class="cls-1" x="197.68" y="325.59" width="11.63" height="11.63"/><rect class="cls-1" x="197.68" y="395.36" width="11.63" height="11.63"/><rect class="cls-1" x="197.68" y="418.62" width="11.63" height="11.63"/><rect class="cls-1" x="209.31" y="11.63" width="11.63" height="34.89"/><rect class="cls-1" x="209.31" y="69.77" width="11.63" height="23.26"/><rect class="cls-1" x="209.31" y="104.65" width="11.63" height="69.77"/><rect class="cls-1" x="209.31" y="186.05" width="11.63" height="11.63"/><rect class="cls-1" x="209.31" y="244.19" width="11.63" height="11.63"/><rect class="cls-1" x="209.31" y="267.45" width="11.63" height="11.63"/><rect class="cls-1" x="209.31" y="290.71" width="11.63" height="11.63"/><rect class="cls-1" x="209.31" y="348.85" width="11.63" height="11.63"/><rect class="cls-1" x="209.31" y="372.11" width="11.63" height="11.63"/><rect class="cls-1" x="209.31" y="395.36" width="11.63" height="23.26"/><rect class="cls-1" x="220.94" y="46.51" width="11.63" height="11.63"/><rect class="cls-1" x="220.94" y="116.28" width="11.63" height="46.51"/><rect class="cls-1" x="220.94" y="174.42" width="11.63" height="11.63"/><rect class="cls-1" x="220.94" y="244.19" width="11.63" height="11.63"/><rect class="cls-1" x="220.94" y="267.45" width="11.63" height="23.26"/><rect class="cls-1" x="220.94" y="302.34" width="11.63" height="46.51"/><rect class="cls-1" x="220.94" y="360.48" width="11.63" height="23.26"/><rect class="cls-1" x="232.57" y="11.63" width="11.63" height="11.63"/><rect class="cls-1" x="232.57" y="34.88" width="11.63" height="11.63"/><rect class="cls-1" x="232.57" y="69.77" width="11.63" height="11.63"/><rect class="cls-1" x="232.57" y="104.65" width="11.63" height="11.63"/><rect class="cls-1" x="232.57" y="127.91" width="11.63" height="23.26"/><rect class="cls-1" x="232.57" y="186.05" width="11.63" height="11.63"/><rect class="cls-1" x="232.57" y="209.31" width="11.63" height="11.63"/><rect class="cls-1" x="232.57" y="232.57" width="11.63" height="11.63"/><rect class="cls-1" x="232.57" y="255.82" width="11.63" height="23.26"/><rect class="cls-1" x="232.57" y="290.71" width="11.63" height="11.63"/><rect class="cls-1" x="232.57" y="313.96" width="11.63" height="11.63"/><rect class="cls-1" x="232.57" y="348.85" width="11.63" height="34.88"/><rect class="cls-1" x="232.57" y="395.36" width="11.63" height="11.63"/><rect class="cls-1" x="244.2" y="11.63" width="11.63" height="23.26"/><rect class="cls-1" x="244.2" y="58.14" width="11.63" height="11.63"/><rect class="cls-1" x="244.2" y="81.4" width="11.63" height="58.14"/><rect class="cls-1" x="244.2" y="186.05" width="11.63" height="23.26"/><rect class="cls-1" x="244.2" y="220.94" width="11.63" height="11.63"/><rect class="cls-1" x="244.2" y="244.19" width="11.63" height="46.51"/><rect class="cls-1" x="244.2" y="313.96" width="11.63" height="11.63"/><rect class="cls-1" x="244.2" y="372.11" width="11.63" height="11.63"/><rect class="cls-1" x="244.2" y="395.36" width="11.63" height="23.26"/><rect class="cls-1" x="255.82" y="34.88" width="11.63" height="46.51"/><rect class="cls-1" x="255.82" y="116.28" width="11.63" height="34.89"/><rect class="cls-1" x="255.82" y="162.8" width="11.63" height="11.63"/><rect class="cls-1" x="255.82" y="186.05" width="11.63" height="11.63"/><rect class="cls-1" x="255.82" y="267.45" width="11.63" height="11.63"/><rect class="cls-1" x="255.82" y="290.71" width="11.63" height="23.26"/><rect class="cls-1" x="255.82" y="325.59" width="11.63" height="11.63"/><rect class="cls-1" x="255.82" y="348.85" width="11.63" height="11.63"/><rect class="cls-1" x="255.82" y="372.11" width="11.63" height="11.63"/><rect class="cls-1" x="255.82" y="406.99" width="11.63" height="23.26"/><rect class="cls-1" x="267.45" width="11.63" height="11.63"/><rect class="cls-1" x="267.45" y="34.88" width="11.63" height="23.26"/><rect class="cls-1" x="267.45" y="104.65" width="11.63" height="11.63"/><rect class="cls-1" x="267.45" y="151.17" width="11.63" height="11.63"/><rect class="cls-1" x="267.45" y="186.05" width="11.63" height="23.26"/><rect class="cls-1" x="267.45" y="232.57" width="11.63" height="23.26"/><rect class="cls-1" x="267.45" y="267.45" width="11.63" height="11.63"/><rect class="cls-1" x="267.45" y="290.71" width="11.63" height="11.63"/><rect class="cls-1" x="267.45" y="313.96" width="11.63" height="34.88"/><rect class="cls-1" x="267.45" y="360.48" width="11.63" height="34.88"/><rect class="cls-1" x="279.08" y="34.88" width="11.63" height="11.63"/><rect class="cls-1" x="279.08" y="58.14" width="11.63" height="23.26"/><rect class="cls-1" x="279.08" y="93.03" width="11.63" height="11.63"/><rect class="cls-1" x="279.08" y="116.28" width="11.63" height="11.63"/><rect class="cls-1" x="279.08" y="174.42" width="11.63" height="11.63"/><rect class="cls-1" x="279.08" y="209.31" width="11.63" height="34.88"/><rect class="cls-1" x="279.08" y="279.08" width="11.63" height="11.63"/><rect class="cls-1" x="279.08" y="302.34" width="11.63" height="11.63"/><rect class="cls-1" x="279.08" y="325.59" width="11.63" height="11.63"/><rect class="cls-1" x="279.08" y="348.85" width="11.63" height="11.63"/><rect class="cls-1" x="279.08" y="372.11" width="11.63" height="34.88"/><rect class="cls-1" x="279.08" y="418.62" width="11.63" height="11.63"/><rect class="cls-1" x="290.71" width="11.63" height="11.63"/><rect class="cls-1" x="290.71" y="34.88" width="11.63" height="11.63"/><rect class="cls-1" x="290.71" y="58.14" width="11.63" height="11.63"/><rect class="cls-1" x="290.71" y="93.03" width="11.63" height="11.63"/><rect class="cls-1" x="290.71" y="116.28" width="11.63" height="11.63"/><rect class="cls-1" x="290.71" y="139.54" width="11.63" height="11.63"/><rect class="cls-1" x="290.71" y="186.05" width="11.63" height="34.88"/><rect class="cls-1" x="290.71" y="232.57" width="11.63" height="11.63"/><rect class="cls-1" x="290.71" y="279.08" width="11.63" height="11.63"/><rect class="cls-1" x="290.71" y="325.59" width="11.63" height="11.63"/><rect class="cls-1" x="290.71" y="348.85" width="11.63" height="11.63"/><rect class="cls-1" x="290.71" y="372.11" width="11.63" height="11.63"/><rect class="cls-1" x="290.71" y="418.62" width="11.63" height="11.63"/><rect class="cls-1" x="302.34" width="11.63" height="11.63"/><rect class="cls-1" x="302.34" y="34.88" width="11.63" height="11.63"/><rect class="cls-1" x="302.34" y="69.77" width="11.63" height="46.51"/><rect class="cls-1" x="302.34" y="127.91" width="11.63" height="23.26"/><rect class="cls-1" x="302.34" y="162.8" width="11.63" height="11.63"/><rect class="cls-1" x="302.34" y="186.05" width="11.63" height="11.63"/><rect class="cls-1" x="302.34" y="209.31" width="11.63" height="34.88"/><rect class="cls-1" x="302.34" y="267.45" width="11.63" height="46.51"/><rect class="cls-1" x="302.34" y="325.59" width="11.63" height="11.63"/><rect class="cls-1" x="302.34" y="372.11" width="11.63" height="46.51"/><rect class="cls-1" x="313.97" y="11.63" width="11.63" height="11.63"/><rect class="cls-1" x="313.97" y="58.14" width="11.63" height="11.63"/><rect class="cls-1" x="313.97" y="81.4" width="11.63" height="23.26"/><rect class="cls-1" x="313.97" y="116.28" width="11.63" height="11.63"/><rect class="cls-1" x="313.97" y="139.54" width="11.63" height="11.63"/><rect class="cls-1" x="313.97" y="162.8" width="11.63" height="23.26"/><rect class="cls-1" x="313.97" y="209.31" width="11.63" height="34.88"/><rect class="cls-1" x="313.97" y="255.82" width="11.63" height="11.63"/><rect class="cls-1" x="313.97" y="279.08" width="11.63" height="11.63"/><rect class="cls-1" x="313.97" y="302.34" width="11.63" height="34.88"/><rect class="cls-1" x="313.97" y="372.11" width="11.63" height="11.63"/><rect class="cls-1" x="325.59" width="11.63" height="34.89"/><rect class="cls-1" x="325.59" y="46.51" width="11.63" height="11.63"/><rect class="cls-1" x="325.59" y="69.77" width="11.63" height="23.26"/><rect class="cls-1" x="325.59" y="116.28" width="11.63" height="11.63"/><rect class="cls-1" x="325.59" y="139.54" width="11.63" height="34.89"/><rect class="cls-1" x="325.59" y="186.05" width="11.63" height="11.63"/><rect class="cls-1" x="325.59" y="244.19" width="11.63" height="46.51"/><rect class="cls-1" x="325.59" y="325.59" width="11.63" height="69.77"/><rect class="cls-1" x="325.59" y="406.99" width="11.63" height="11.63"/><rect class="cls-1" x="337.22" y="104.65" width="11.63" height="23.26"/><rect class="cls-1" x="337.22" y="139.54" width="11.63" height="23.26"/><rect class="cls-1" x="337.22" y="186.05" width="11.63" height="11.63"/><rect class="cls-1" x="337.22" y="232.57" width="11.63" height="11.63"/><rect class="cls-1" x="337.22" y="255.82" width="11.63" height="46.51"/><rect class="cls-1" x="337.22" y="313.96" width="11.63" height="23.26"/><rect class="cls-1" x="337.22" y="372.11" width="11.63" height="58.14"/><rect class="cls-1" x="348.85" width="11.63" height="81.4"/><rect class="cls-1" x="348.85" y="93.03" width="11.63" height="11.63"/><rect class="cls-1" x="348.85" y="116.28" width="11.63" height="34.89"/><rect class="cls-1" x="348.85" y="162.8" width="11.63" height="11.63"/><rect class="cls-1" x="348.85" y="186.05" width="11.63" height="11.63"/><rect class="cls-1" x="348.85" y="209.31" width="11.63" height="11.63"/><rect class="cls-1" x="348.85" y="232.57" width="11.63" height="11.63"/><rect class="cls-1" x="348.85" y="279.08" width="11.63" height="11.63"/><rect class="cls-1" x="348.85" y="302.34" width="11.63" height="34.88"/><rect class="cls-1" x="348.85" y="348.85" width="11.63" height="11.63"/><rect class="cls-1" x="348.85" y="372.11" width="11.63" height="23.26"/><rect class="cls-1" x="348.85" y="406.99" width="11.63" height="23.26"/><rect class="cls-1" x="360.48" width="11.63" height="11.63"/><rect class="cls-1" x="360.48" y="69.77" width="11.63" height="11.63"/><rect class="cls-1" x="360.48" y="93.03" width="11.63" height="46.51"/><rect class="cls-1" x="360.48" y="151.17" width="11.63" height="34.89"/><rect class="cls-1" x="360.48" y="197.68" width="11.63" height="34.88"/><rect class="cls-1" x="360.48" y="255.82" width="11.63" height="23.26"/><rect class="cls-1" x="360.48" y="313.96" width="11.63" height="23.26"/><rect class="cls-1" x="360.48" y="372.11" width="11.63" height="11.63"/><rect class="cls-1" x="372.11" width="11.63" height="11.63"/><rect class="cls-1" x="372.11" y="23.26" width="11.63" height="34.89"/><rect class="cls-1" x="372.11" y="69.77" width="11.63" height="11.63"/><rect class="cls-1" x="372.11" y="93.03" width="11.63" height="11.63"/><rect class="cls-1" x="372.11" y="116.28" width="11.63" height="11.63"/><rect class="cls-1" x="372.11" y="139.54" width="11.63" height="11.63"/><rect class="cls-1" x="372.11" y="162.8" width="11.63" height="34.89"/><rect class="cls-1" x="372.11" y="220.94" width="11.63" height="23.26"/><rect class="cls-1" x="372.11" y="255.82" width="11.63" height="34.88"/><rect class="cls-1" x="372.11" y="325.59" width="11.63" height="69.77"/><rect class="cls-1" x="372.11" y="406.99" width="11.63" height="23.26"/><rect class="cls-1" x="383.74" width="11.63" height="11.63"/><rect class="cls-1" x="383.74" y="23.26" width="11.63" height="34.89"/><rect class="cls-1" x="383.74" y="69.77" width="11.63" height="11.63"/><rect class="cls-1" x="383.74" y="93.03" width="11.63" height="11.63"/><rect class="cls-1" x="383.74" y="139.54" width="11.63" height="11.63"/><rect class="cls-1" x="383.74" y="162.8" width="11.63" height="11.63"/><rect class="cls-1" x="383.74" y="197.68" width="11.63" height="23.26"/><rect class="cls-1" x="383.74" y="232.57" width="11.63" height="34.88"/><rect class="cls-1" x="383.74" y="325.59" width="11.63" height="23.26"/><rect class="cls-1" x="383.74" y="360.48" width="11.63" height="11.63"/><rect class="cls-1" x="383.74" y="383.73" width="11.63" height="11.63"/><rect class="cls-1" x="395.36" width="11.63" height="11.63"/><rect class="cls-1" x="395.36" y="23.26" width="11.63" height="34.89"/><rect class="cls-1" x="395.36" y="69.77" width="11.63" height="11.63"/><rect class="cls-1" x="395.36" y="93.03" width="11.63" height="34.89"/><rect class="cls-1" x="395.36" y="139.54" width="11.63" height="11.63"/><rect class="cls-1" x="395.36" y="186.05" width="11.63" height="34.88"/><rect class="cls-1" x="395.36" y="232.57" width="11.63" height="11.63"/><rect class="cls-1" x="395.36" y="279.08" width="11.63" height="11.63"/><rect class="cls-1" x="395.36" y="325.59" width="11.63" height="11.63"/><rect class="cls-1" x="395.36" y="348.85" width="11.63" height="11.63"/><rect class="cls-1" x="395.36" y="372.11" width="11.63" height="11.63"/><rect class="cls-1" x="395.36" y="395.36" width="11.63" height="11.63"/><rect class="cls-1" x="395.36" y="418.62" width="11.63" height="11.63"/><rect class="cls-1" x="406.99" width="11.63" height="11.63"/><rect class="cls-1" x="406.99" y="69.77" width="11.63" height="11.63"/><rect class="cls-1" x="406.99" y="104.65" width="11.63" height="23.26"/><rect class="cls-1" x="406.99" y="139.54" width="11.63" height="11.63"/><rect class="cls-1" x="406.99" y="162.8" width="11.63" height="11.63"/><rect class="cls-1" x="406.99" y="197.68" width="11.63" height="23.26"/><rect class="cls-1" x="406.99" y="244.19" width="11.63" height="23.26"/><rect class="cls-1" x="406.99" y="302.34" width="11.63" height="11.63"/><rect class="cls-1" x="406.99" y="325.59" width="11.63" height="58.14"/><rect class="cls-1" x="406.99" y="395.36" width="11.63" height="11.63"/><rect class="cls-1" x="406.99" y="418.62" width="11.63" height="11.63"/><rect class="cls-1" x="418.62" width="11.63" height="81.4"/><rect class="cls-1" x="418.62" y="116.28" width="11.63" height="34.89"/><rect class="cls-1" x="418.62" y="162.8" width="11.63" height="11.63"/><rect class="cls-1" x="418.62" y="186.05" width="11.63" height="11.63"/><rect class="cls-1" x="418.62" y="209.31" width="11.63" height="23.26"/><rect class="cls-1" x="418.62" y="255.82" width="11.63" height="34.88"/><rect class="cls-1" x="418.62" y="302.34" width="11.63" height="34.88"/><rect class="cls-1" x="418.62" y="348.85" width="11.63" height="23.26"/><rect class="cls-1" x="418.62" y="383.73" width="11.63" height="46.51"/></svg>